<?xml version="1.0" encoding="utf-8"?>
<!-- Generator: Adobe Illustrator 26.0.3, SVG Export Plug-In . SVG Version: 6.00 Build 0)  -->
<svg version="1.1" id="Layer_1" xmlns="http://www.w3.org/2000/svg" xmlns:xlink="http://www.w3.org/1999/xlink" x="0px" y="0px"
	 viewBox="0 0 612 792" style="enable-background:new 0 0 612 792;" xml:space="preserve">
<style type="text/css">
	.st0{fill:#0A4140;}
</style>
<g>
	<path class="st0" d="M177.19,410.44c0.55,4.44,1.2,8.87,2.1,13.24c5.07,24.76,16.62,46.07,34.16,64.2c1.35,1.4,3.32,2.01,5.23,1.65
		c11.98-2.2,23.94-4.76,36.04-5.98c14.56-1.47,29.11,0.05,43.46,3.04c1.83,0.38,3.58,1.44,2.76-3.53
		c-1.47-8.89-1.68-17.94-1.03-26.93c0.34-4.65-0.13-5.22-3.03-5.64c-11.79-1.73-23.79-2.82-35.26-5.84
		c-32.82-8.66-60.02-26.64-82.38-52.08C179.24,392.57,174.61,389.48,177.19,410.44z"/>
	<path class="st0" d="M435.7,389.84c0.92,22.29-2.81,42.49-11.75,61.63c-12.6,27-32.34,47.21-58.64,61.13
		c-2.56,1.36-4.44,1.46-7-0.35c-12.38-8.74-25.87-15.4-40.24-20.18c-2.51-0.83-3.77-2.04-3.88-4.6
		c-0.49-11.29-0.99-22.58-1.52-33.87c-0.1-2.24,0.85-2.94,3.08-3.06c30.52-1.63,58.46-11.11,83.85-28.07
		c12.17-8.13,23.1-17.73,32.69-28.81C433.16,392.63,434.08,391.65,435.7,389.84z"/>
	<path class="st0" d="M419.84,335.23c-0.67,0.73-1.33,1.6-2.13,2.31c-18.11,16.19-36.24,32.35-54.36,48.53
		c-14.02,12.53-28.03,25.09-42.04,37.64c-0.56,0.5-1.04,1.14-1.69,1.45c-0.69,0.34-1.54,0.36-2.31,0.52
		c0.01-0.72-0.15-1.48,0.04-2.15c6.96-23.87,18.27-45.35,35.12-63.79c15.36-16.8,33.46-29.7,54.39-38.68
		c2.41-1.03,3.83-0.88,5.19,1.43c2.08,3.54,4.38,6.95,6.57,10.42C419.02,333.56,419.32,334.24,419.84,335.23z"/>
	<path class="st0" d="M295.29,427.28c-1.51-1.23-2.46-1.95-3.35-2.75c-32.3-28.89-64.58-57.81-96.94-86.63
		c-2.22-1.98-2.58-3.48-0.86-5.88c2.17-3.03,4.15-6.21,6.04-9.42c1.32-2.24,2.65-2.61,5.15-1.53
		c27.96,12.04,50.57,30.57,67.77,55.66c10.09,14.71,17.38,30.73,21.78,48.04C295.02,425.32,295.07,425.9,295.29,427.28z"/>
	<path class="st0" d="M326.52,436c5.05-4.56,10.09-9.13,15.16-13.67c27.1-24.24,54.22-48.44,81.26-72.74
		c2.24-2.01,3.26-2.11,4.15,0.96c1.83,6.31,3.95,12.54,5.67,18.89c0.35,1.31-0.09,3.28-0.91,4.4
		c-23.59,32.02-54.66,52.64-93.64,61.09c-3.74,0.81-7.52,1.41-11.28,2.11C326.8,436.69,326.66,436.34,326.52,436z"/>
	<path class="st0" d="M285.26,437.32c-8.63-2.11-17.41-3.74-25.86-6.43c-32.32-10.29-58.43-29.37-78.42-56.76
		c-1.05-1.44-1.5-3.99-1.06-5.72c1.58-6.24,3.64-12.36,5.57-18.51c0.56-1.79,1.22-2.8,3.24-0.99c32.15,28.88,64.37,57.7,96.56,86.54
		c0.16,0.14,0.21,0.41,0.31,0.62C285.48,436.5,285.37,436.91,285.26,437.32z"/>
	<path class="st0" d="M298.2,394.61c-4.69-9.27-9.98-18.29-13.97-27.85c-12.33-29.59-14.69-60.2-8.13-91.55
		c0.6-2.86,1.52-4.66,4.8-4.96c5.31-0.5,10.59-1.4,15.88-2.14c2.1-0.3,3.1,0.18,3.1,2.7c-0.08,40.72-0.06,81.44-0.07,122.16
		c0,0.34-0.13,0.67-0.19,1.01C299.14,394.17,298.67,394.39,298.2,394.61z"/>
	<path class="st0" d="M312.33,331.19c0-19.69,0.08-39.39-0.08-59.08c-0.03-3.27,0.69-4.59,4.1-4c5.51,0.96,11.07,1.62,16.55,2.7
		c1.04,0.21,2.36,1.66,2.62,2.76c4.24,17.98,5.11,36.11,2.74,54.47c-2.95,22.84-10.69,43.86-23.01,63.25
		c-0.4,0.63-0.75,1.3-1.24,1.86c-0.27,0.31-0.77,0.42-1.16,0.61c-0.17-0.42-0.44-0.83-0.48-1.26c-0.08-0.87-0.03-1.74-0.03-2.62
		C312.33,370.32,312.33,350.76,312.33,331.19z"/>
	<path class="st0" d="M348.61,345.15c0.38-2.92,0.64-5.85,1.15-8.75c3.32-18.81,3.33-37.6,0-56.4c-0.07-0.37-0.15-0.73-0.24-1.09
		c-0.63-2.74-0.26-3.88,2.99-2.59c17.85,7.03,33.52,17.29,46.91,31.03c1.21,1.25,2.52,2.23-0.18,3.43
		c-18.62,8.27-35.14,19.64-49.69,33.89c-0.24,0.23-0.66,0.27-1,0.4L348.61,345.15z"/>
	<path class="st0" d="M264.07,345.48c-5.9-5.01-11.08-9.62-16.49-13.95c-10.17-8.13-21.28-14.77-33.17-20.07
		c-2.9-1.29-3.69-2.09-1.07-4.72c13.3-13.33,28.62-23.51,46.21-30.27c1-0.38,2.11-0.49,3.17-0.72c-0.04,1.08,0.05,2.18-0.13,3.23
		c-3.65,21.25-3.4,42.42,1.06,63.54C263.79,343.24,263.85,343.98,264.07,345.48z"/>
	<path class="st0" d="M227.89,500.06c13.68-3.44,27.15-5.1,40.71-4.27c10.4,0.64,20.71,2.62,31.07,3.91
		c3.12,0.39,4.56,1.91,5.39,5.01c1.76,6.6,3.98,13.07,6.14,19.56c0.54,1.62,0.81,2.42-1.43,2.46c-29.77,0.64-56.68-7.75-80.71-25.35
		C228.78,501.19,228.58,500.86,227.89,500.06z"/>
	<path class="st0" d="M327.43,525.36c-0.44,0.12-0.92,0.01-1.28-0.28c-0.74-0.6-1.52-1.13-1.8-1.85c-1.92-4.96-3.67-9.99-5.41-15.02
		c-0.01-0.03-0.02-0.07-0.03-0.1c-0.32-1.12,0.86-2.21,1.91-1.71c0.01,0,0.01,0.01,0.02,0.01c8.1,4,16.19,8.03,24.25,12.1
		c1.22,0.62,2.47,1.57-0.02,2.23C339.33,522.28,333.58,523.76,327.43,525.36z"/>
	<path class="st0" d="M348.55,345.07c-0.09,0.07-0.18,0.14-0.28,0.22c0.11-0.05,0.22-0.09,0.33-0.14
		C348.61,345.15,348.55,345.07,348.55,345.07z"/>
</g>
</svg>
