<?xml version="1.0" standalone="no"?>
<!DOCTYPE svg PUBLIC "-//W3C//DTD SVG 20010904//EN"
 "http://www.w3.org/TR/2001/REC-SVG-20010904/DTD/svg10.dtd">
<svg version="1.0" xmlns="http://www.w3.org/2000/svg"
 width="1024.000000pt" height="350.000000pt" viewBox="0 0 1024.000000 350.000000"
 preserveAspectRatio="xMidYMid meet">

<g transform="translate(0.000000,350.000000) scale(0.100000,-0.100000)"
fill="#000000" stroke="none">
<path d="M1531 3254 c-47 -8 -87 -16 -89 -19 -18 -18 -43 -212 -49 -365 -11
-337 58 -628 216 -913 101 -180 91 -246 91 586 l0 727 -42 -1 c-24 -1 -81 -7
-127 -15z"/>
<path d="M1840 2545 c0 -399 4 -725 8 -725 5 0 30 36 56 80 109 184 190 399
228 608 29 164 30 439 0 601 -11 62 -25 118 -30 123 -11 11 -170 38 -224 38
l-38 0 0 -725z"/>
<path d="M1191 3155 c-150 -62 -307 -164 -428 -279 -40 -38 -73 -72 -73 -77 0
-5 44 -31 98 -58 161 -81 327 -197 451 -315 l53 -51 -6 45 c-4 25 -14 88 -22
140 -18 125 -18 371 2 511 8 61 14 113 12 115 -2 1 -41 -12 -87 -31z"/>
<path d="M2274 3133 c5 -32 12 -89 16 -128 20 -155 4 -461 -30 -584 -5 -19 -8
-36 -7 -38 2 -1 41 31 88 73 122 109 247 194 392 269 70 37 127 70 127 75 0
14 -140 137 -228 199 -83 60 -218 134 -311 171 l-54 21 7 -58z"/>
<path d="M537 2612 c-49 -74 -70 -112 -65 -116 2 -2 266 -238 588 -526 321
-287 586 -518 588 -512 7 21 -79 257 -132 362 -169 339 -443 616 -780 789
-158 81 -148 81 -199 3z"/>
<path d="M2830 2617 c-69 -34 -154 -82 -190 -106 -358 -242 -610 -589 -733
-1008 -9 -29 -12 -53 -8 -53 4 0 41 30 81 67 41 36 299 267 575 513 275 246
506 454 512 462 10 12 3 30 -44 101 -31 48 -59 87 -63 87 -3 0 -62 -28 -130
-63z"/>
<path d="M380 2303 c-12 -32 -31 -94 -43 -139 l-21 -81 66 -84 c85 -109 249
-266 369 -352 182 -131 469 -253 688 -293 92 -17 118 -14 89 9 -9 6 -262 233
-563 502 -301 270 -550 491 -555 493 -4 2 -18 -23 -30 -55z"/>
<path d="M2610 1889 c-289 -259 -545 -489 -570 -511 l-45 -40 59 6 c218 23
526 149 746 304 103 73 321 282 390 375 l43 57 -18 73 c-20 83 -64 207 -74
207 -3 -1 -242 -213 -531 -471z"/>
<path d="M293 1723 c14 -345 149 -676 379 -927 l63 -69 110 26 c173 40 267 50
460 50 135 -1 209 -6 295 -21 63 -11 116 -20 117 -18 1 1 -2 42 -7 91 -6 50
-10 142 -9 205 l1 115 -113 12 c-491 54 -915 270 -1247 636 -23 26 -45 47 -49
47 -3 0 -3 -66 0 -147z"/>
<path d="M3150 1762 c-323 -331 -727 -526 -1182 -573 l-117 -13 -7 -65 c-7
-65 9 -310 24 -364 7 -25 20 -33 107 -66 122 -46 232 -101 349 -175 l89 -56
66 36 c391 214 658 571 752 1007 17 80 39 378 28 377 -2 -1 -51 -49 -109 -108z"/>
<path d="M1190 663 c-139 -10 -310 -39 -310 -52 0 -13 132 -97 226 -144 195
-98 377 -145 592 -154 78 -3 142 -4 142 -1 0 3 -11 34 -24 69 -13 35 -34 100
-46 144 -12 44 -23 81 -24 82 -8 9 -214 44 -312 52 -116 11 -151 11 -244 4z"/>
<path d="M1916 528 c29 -95 69 -191 81 -195 18 -7 103 8 186 32 49 14 56 19
46 32 -15 17 -286 153 -306 153 -10 0 -12 -7 -7 -22z"/>
</g>
</svg>
