<svg width="352" height="351" xmlns="http://www.w3.org/2000/svg">
 <!-- Created with SVG Editor - http://github.com/mzalive/SVG Editor/ -->

 <g>
  <title>background</title>
  <rect fill="#fff" id="canvas_background" height="353" width="354" y="-1" x="-1"/>
  <g display="none" overflow="visible" y="0" x="0" height="100%" width="100%" id="canvasGrid">
   <rect fill="url(#gridpattern)" stroke-width="0" y="0" x="0" height="100%" width="100%"/>
  </g>
 </g>
 <g>
  <title>Layer 1</title>
  <g stroke="null" id="svg_17">
   <g stroke="null" id="svg_4" fill="#000000" transform="matrix(0.10039590956033434,0,0,-0.10097447969204737,-1834.191150539324,-993.3388870776639) ">
    <path stroke="null" fill="#09413f" id="svg_5" d="m19811.9832,-9865.643993c-33,-5 -87,-14 -120,-21l-60,-13l-17,-80c-60,-284 -50,-635 26,-930c53,-205 161,-453 259,-594l32,-46l3,835c1,459 0,841 -3,848c-5,13 -31,14 -120,1z"/>
    <path stroke="null" fill="#09413f" id="svg_6" d="m20106.9832,-10698.643993c0,-465 2,-846 4,-846c7,0 100,158 140,237c91,183 170,434 197,633c27,195 14,527 -27,711l-15,67l-87,15c-48,9 -115,19 -149,23l-63,7l0,-847z"/>
    <path stroke="null" fill="#09413f" id="svg_7" d="m19371.9832,-9979.643993c-122,-46 -266,-127 -395,-224c-81,-60 -220,-188 -220,-202c0,-4 54,-36 121,-70c197,-100 373,-223 511,-357c32,-31 60,-54 63,-51c2,3 -2,37 -10,75c-40,193 -49,508 -20,714c9,63 18,117 21,121c10,18 -15,15 -71,-6z"/>
    <path stroke="null" fill="#09413f" id="svg_8" d="m20596.9832,-9961.643993c0,-5 7,-44 15,-88c35,-182 29,-572 -10,-738c-25,-105 -23,-106 73,-22c171,151 331,259 510,347c56,28 102,54 102,59c0,14 -190,178 -279,240c-89,62 -258,153 -351,188c-63,24 -60,23 -60,14z"/>
    <path stroke="null" fill="#09413f" id="svg_9" d="m18566.9832,-10646.643993c-33,-51 -60,-97 -60,-103c0,-7 244,-230 543,-497c298,-267 603,-540 677,-607c74,-66 138,-121 142,-121c11,0 -31,137 -79,260c-191,487 -572,893 -1046,1115c-53,25 -101,45 -107,45c-6,0 -38,-41 -70,-92z"/>
    <path stroke="null" fill="#09413f" id="svg_10" d="m21261.9832,-10618.643993c-511,-250 -889,-690 -1064,-1239c-33,-104 -36,-121 -22,-115c9,3 195,168 785,698c138,124 324,290 414,369c89,79 162,148 162,153c0,17 -122,198 -134,198c-6,0 -69,-29 -141,-64z"/>
    <path stroke="null" fill="#09413f" id="svg_11" d="m18386.9832,-11011.643993c-17,-49 -39,-120 -48,-160l-15,-72l59,-78c129,-169 314,-340 504,-468c117,-78 341,-186 486,-234c124,-41 319,-85 354,-79c14,2 -57,71 -277,268c-163,146 -458,410 -656,588c-198,177 -364,322 -368,322c-4,0 -21,-39 -39,-87z"/>
    <path stroke="null" fill="#09413f" id="svg_12" d="m21404.9832,-11107.643993c-112,-100 -282,-252 -378,-338c-408,-363 -725,-650 -728,-658c-1,-5 10,-6 25,-4c242,39 478,116 671,220c98,53 266,167 353,239c140,116 369,372 369,413c0,43 -86,311 -101,311c-4,0 -99,-82 -211,-183z"/>
    <path stroke="null" fill="#09413f" id="svg_13" d="m18289.9832,-11636.643993c17,-409 166,-788 431,-1090c41,-47 79,-89 84,-92c4,-2 51,6 103,19c297,75 617,89 911,40c134,-22 134,-22 129,-5c-2,8 -6,116 -10,240l-6,225l-55,3c-112,5 -289,34 -416,67c-407,106 -754,310 -1052,618c-61,65 -115,117 -119,117c-3,0 -3,-64 0,-142z"/>
    <path stroke="null" fill="#09413f" id="svg_14" d="m21723.9832,-11517.643993c-8,-12 -61,-69 -118,-126c-288,-287 -631,-484 -1023,-586c-135,-35 -321,-65 -404,-65c-27,0 -53,-5 -60,-12c-18,-18 -15,-295 3,-420c9,-56 17,-103 18,-104c1,-1 56,-23 122,-48c140,-55 319,-147 424,-218l75,-50l55,27c89,43 269,167 358,247c276,248 467,575 538,923c38,187 59,455 36,455c-5,0 -15,-10 -24,-23z"/>
    <path stroke="null" fill="#09413f" id="svg_15" d="m19231.9832,-12911.643993c-16,-2 -81,-13 -143,-25c-130,-24 -130,-22 -14,-96c266,-170 570,-266 886,-279c134,-6 139,-5 131,13c-14,34 -74,217 -89,275l-16,56l-102,22c-57,12 -137,26 -178,31c-71,9 -412,11 -475,3z"/>
    <path stroke="null" fill="#09413f" id="svg_16" d="m20186.9832,-13041.643993c0,-12 54,-168 74,-215c15,-35 19,-37 49,-32c93,17 247,57 247,65c0,13 -46,40 -195,113c-139,68 -175,83 -175,69z"/>
   </g>
  </g>
 </g>
</svg>